<?xml version="1.0" encoding="UTF-8" standalone="no"?>
<svg
   version="1.1"
   viewBox="0 0 775 774"
   id="svg634"
   xmlns="http://www.w3.org/2000/svg"
   xmlns:svg="http://www.w3.org/2000/svg">
  <defs
     id="defs638" />
  <path
     fill="transparent"
     d="M 0.00,0.00 Q 387.50,0.00 775.00,0.00 Q 775.00,387.00 775.00,774.00 Q 387.50,774.00 0.00,774.00 Q 0.00,387.00 0.00,0.00 ZM 431.17,44.58 A 43.53 43.53 0.0 0 0 387.64,1.05 A 43.53 43.53 0.0 0 0 344.11,44.58 A 43.53 43.53 0.0 0 0 387.64,88.11 A 43.53 43.53 0.0 0 0 431.17,44.58 ZM 255.63,26.52 Q 245.66,22.51 235.65,19.05 A 0.66,0.66 22.8 0 0 234.84,19.38 Q 228.03,33.07 223.40,46.90 Q 221.67,52.08 221.52,55.80 Q 221.33,60.47 222.44,64.97 Q 223.14,67.80 227.11,77.61 Q 247.03,126.83 291.66,157.70 A 0.79,0.79 22.4 0 0 292.89,157.19 Q 297.10,133.38 295.39,109.51 Q 292.80,73.62 276.21,41.80 Q 273.35,36.30 268.75,33.25 Q 263.21,29.57 255.63,26.52 ZM 501.23,38.47 Q 499.53,40.61 498.31,43.06 Q 471.29,97.43 482.63,157.25 A 0.50,0.49 -23.1 0 0 483.41,157.56 Q 498.89,146.50 511.95,133.32 Q 519.22,125.98 525.09,118.28 Q 544.08,93.32 553.27,63.06 Q 554.47,59.12 554.44,56.70 Q 554.40,53.55 553.31,50.19 Q 547.89,33.44 540.18,19.50 A 0.63,0.61 -22.7 0 0 539.45,19.21 Q 524.74,23.74 510.96,30.60 Q 505.21,33.47 501.23,38.47 ZM 314.95,128.19 Q 314.25,147.70 309.86,167.38 A 0.66,0.65 -71.3 0 0 310.21,168.11 Q 333.03,179.06 357.63,183.95 A 0.47,0.47 5.6 0 0 358.19,183.49 Q 357.56,138.88 336.27,100.43 Q 331.57,91.95 325.50,83.58 Q 315.84,70.25 304.24,58.49 Q 303.30,57.53 303.77,58.79 Q 316.23,92.30 314.95,128.19 ZM 464.94,65.01 Q 436.72,95.05 424.69,134.12 Q 421.89,143.18 420.17,153.58 Q 417.76,168.09 416.96,183.21 A 0.47,0.47 86.2 0 0 417.52,183.70 Q 441.64,179.01 464.92,168.44 A 1.17,1.16 -19.0 0 0 465.58,167.10 Q 461.55,150.00 460.72,132.75 Q 460.21,122.20 460.56,112.76 Q 461.18,96.18 465.28,80.01 Q 467.82,69.99 470.51,59.98 Q 470.74,59.10 470.03,59.68 Q 468.63,60.83 467.34,62.29 Q 465.02,64.92 464.94,65.01 ZM 251.81,148.44 Q 238.95,135.73 228.30,119.94 Q 225.37,115.59 221.22,108.22 Q 217.85,102.25 214.43,96.30 Q 213.77,95.15 213.82,96.48 Q 214.61,118.38 219.37,139.79 Q 221.67,150.10 224.81,159.01 Q 237.40,194.70 263.92,222.04 A 0.65,0.65 -50.1 0 0 264.93,221.95 Q 278.80,201.13 287.58,177.71 A 0.62,0.62 26.8 0 0 287.34,176.98 Q 267.53,163.96 251.81,148.44 ZM 559.70,97.67 Q 543.05,130.99 515.44,155.94 Q 504.71,165.63 488.16,176.97 A 0.66,0.64 63.3 0 0 487.92,177.73 Q 496.03,200.90 510.15,221.68 A 0.80,0.80 49.5 0 0 511.39,221.78 Q 560.81,169.25 560.69,97.90 Q 560.68,95.69 559.70,97.67 ZM 189.03,144.95 A 43.59 43.59 0.0 0 0 145.44,101.36 A 43.59 43.59 0.0 0 0 101.85,144.95 A 43.59 43.59 0.0 0 0 145.44,188.54 A 43.59 43.59 0.0 0 0 189.03,144.95 ZM 587.04,143.25 Q 585.55,157.46 593.50,169.04 Q 599.82,178.79 610.25,183.96 Q 622.74,190.87 636.75,187.79 Q 661.58,182.95 670.32,160.77 Q 672.58,155.03 673.20,149.37 Q 673.87,143.22 672.75,137.50 Q 668.76,117.03 652.04,107.42 Q 643.34,102.42 633.12,101.50 Q 613.73,99.76 599.06,113.81 Q 587.01,125.36 587.04,143.25 ZM 496.14,235.40 A 0.84,0.84 41.7 0 0 496.09,234.53 Q 480.79,212.33 471.36,187.10 A 0.85,0.85 -22.6 0 0 470.22,186.63 Q 445.50,197.78 418.49,202.75 A 0.73,0.73 -9.5 0 0 417.90,203.57 Q 422.75,236.75 437.09,266.24 A 0.59,0.58 -21.7 0 0 437.79,266.54 Q 468.77,256.58 494.78,237.06 Q 495.61,236.44 496.14,235.40 ZM 311.17,256.09 Q 323.56,262.21 337.31,266.77 A 0.61,0.60 22.0 0 0 338.05,266.46 Q 352.39,236.71 357.59,203.65 A 0.42,0.41 10.2 0 0 357.26,203.18 Q 330.51,197.35 305.30,186.86 A 1.11,1.10 -68.6 0 0 303.84,187.50 Q 297.49,204.41 288.34,219.88 Q 283.89,227.41 279.12,235.47 A 0.69,0.69 33.3 0 0 279.30,236.37 Q 294.16,247.69 311.17,256.09 ZM 357.60,270.84 Q 387.02,276.56 417.83,271.32 A 0.69,0.69 72.8 0 0 418.34,270.35 Q 403.88,239.36 399.00,205.24 A 0.57,0.55 85.3 0 0 398.44,204.75 L 378.33,205.02 A 1.91,1.84 -81.7 0 0 376.56,206.39 Q 374.91,212.12 373.77,218.66 Q 369.14,245.28 357.14,269.92 A 0.65,0.65 18.4 0 0 357.60,270.84 ZM 156.67,259.94 Q 167.72,272.54 177.04,286.53 A 0.63,0.62 -26.5 0 0 177.78,286.77 Q 201.54,278.42 222.68,264.49 A 0.42,0.41 50.6 0 0 222.74,263.85 Q 189.68,231.61 145.77,219.69 Q 132.02,215.95 115.75,214.75 Q 103.31,213.83 98.06,213.59 A 0.60,0.40 0.0 0 0 97.41,214.02 Q 97.45,214.33 97.92,214.58 Q 122.20,227.53 142.61,245.74 Q 149.97,252.30 156.67,259.94 ZM 552.39,264.26 Q 573.71,279.10 597.43,287.06 A 0.59,0.58 -63.7 0 0 598.10,286.83 Q 605.94,274.92 614.87,263.95 Q 621.54,255.75 628.38,249.25 Q 648.05,230.54 672.24,217.79 Q 674.91,216.39 676.31,215.26 Q 677.87,214.00 675.87,214.00 Q 631.96,214.07 594.11,233.66 Q 570.97,245.64 552.32,263.32 A 0.61,0.61 40.9 0 0 552.39,264.26 ZM 125.56,255.19 Q 99.36,232.60 63.72,221.34 Q 58.58,219.72 57.00,220.00 Q 49.78,221.29 42.94,223.94 Q 31.73,228.28 20.12,234.30 A 1.05,1.05 67.2 0 0 19.61,235.55 Q 24.96,252.00 32.76,266.23 Q 34.89,270.12 37.07,272.12 Q 39.70,274.52 43.19,276.31 Q 77.26,293.83 114.76,295.37 Q 123.17,295.72 134.73,294.95 Q 146.46,294.17 158.03,292.78 A 0.49,0.49 69.2 0 0 158.37,292.02 Q 144.36,271.39 125.56,255.19 ZM 617.33,292.29 Q 645.20,297.31 673.24,294.16 Q 699.75,291.19 723.91,280.25 Q 731.46,276.83 733.17,275.82 Q 737.77,273.08 740.96,268.90 Q 743.32,265.81 747.85,255.66 Q 752.35,245.61 755.93,234.96 A 0.61,0.61 -67.0 0 0 755.64,234.23 Q 740.35,226.34 724.44,221.42 Q 719.90,220.02 716.40,220.39 Q 711.70,220.90 706.44,222.94 Q 682.60,232.18 664.19,244.50 Q 635.81,263.50 617.16,291.91 A 0.25,0.25 21.5 0 0 617.33,292.29 ZM 468.65,308.10 Q 478.82,318.07 490.85,326.61 A 0.39,0.39 27.1 0 0 491.44,326.42 Q 503.45,294.29 524.66,266.60 A 0.87,0.87 -49.6 0 0 524.57,265.43 L 509.05,250.65 A 0.61,0.60 -40.9 0 0 508.28,250.60 Q 493.69,260.81 483.25,267.00 Q 466.52,276.92 447.98,282.67 A 0.40,0.39 -25.8 0 0 447.77,283.27 Q 457.20,296.87 468.65,308.10 ZM 327.39,282.88 Q 298.44,273.11 274.32,255.43 Q 271.26,253.19 267.42,250.90 A 1.13,1.11 38.2 0 0 266.07,251.05 L 251.05,265.84 A 0.62,0.60 51.1 0 0 250.98,266.62 Q 255.27,273.01 259.60,279.41 Q 265.21,287.70 267.92,292.41 Q 277.28,308.64 283.25,326.49 A 0.61,0.61 -27.2 0 0 284.19,326.79 Q 309.00,308.51 327.57,283.47 A 0.38,0.38 -62.2 0 0 327.39,282.88 ZM 256.31,342.31 Q 264.52,338.75 267.05,337.48 A 0.57,0.57 -23.5 0 0 267.33,336.78 Q 264.72,329.62 259.06,316.69 Q 249.87,295.64 236.32,279.14 A 0.63,0.62 56.9 0 0 235.56,278.97 Q 231.01,281.23 224.69,285.19 Q 206.92,296.32 187.54,303.73 A 0.82,0.81 -22.6 0 0 187.08,304.83 Q 198.19,329.43 203.10,356.31 A 0.59,0.58 -8.9 0 0 203.75,356.78 Q 231.19,353.24 256.31,342.31 ZM 509.18,337.93 Q 538.84,352.70 571.44,357.12 A 0.52,0.51 8.6 0 0 572.02,356.70 Q 576.92,329.43 588.48,304.26 A 0.46,0.45 22.4 0 0 588.22,303.64 Q 567.90,295.92 551.81,285.94 Q 544.23,281.23 539.27,279.02 A 0.64,0.64 -58.8 0 0 538.50,279.21 Q 518.11,304.94 508.82,337.12 A 0.69,0.68 -69.2 0 0 509.18,337.93 ZM 448.93,314.18 Q 438.03,302.18 428.81,288.63 A 0.78,0.77 67.0 0 0 428.02,288.31 Q 388.38,296.76 349.04,288.71 Q 347.26,288.34 346.14,289.79 Q 339.44,298.44 332.56,307.31 Q 324.96,317.11 313.90,326.84 Q 311.39,329.06 302.23,336.21 Q 296.33,340.82 290.68,345.74 A 1.02,0.99 68.4 0 0 290.34,346.56 Q 290.48,349.20 290.61,351.85 Q 290.74,354.56 291.13,357.62 Q 295.54,392.71 289.09,427.50 A 0.82,0.81 -66.7 0 0 289.40,428.30 Q 297.43,434.28 305.27,440.49 Q 325.49,456.52 340.47,477.52 Q 343.01,481.08 345.75,483.87 A 3.11,3.10 66.5 0 0 348.07,484.79 Q 355.54,484.52 361.78,483.70 Q 394.75,479.34 427.27,486.15 A 0.78,0.78 -65.3 0 0 428.05,485.86 Q 434.68,477.31 441.34,468.80 Q 454.12,452.47 470.70,439.99 Q 478.58,434.06 486.60,428.29 A 0.76,0.75 65.9 0 0 486.89,427.51 Q 477.72,387.97 486.31,347.98 A 2.37,2.37 -66.5 0 0 485.35,345.54 Q 473.87,337.48 463.22,328.16 Q 455.48,321.39 448.93,314.18 ZM 632.86,313.54 Q 620.09,312.10 607.55,309.26 A 0.65,0.65 -71.4 0 0 606.81,309.63 Q 596.52,332.17 591.21,356.45 A 0.89,0.88 -84.7 0 0 592.10,357.53 Q 665.07,355.07 715.19,304.81 Q 716.34,303.66 714.78,304.16 Q 684.43,313.84 652.82,314.47 Q 642.89,314.66 632.86,313.54 ZM 64.53,309.23 Q 114.49,356.24 183.68,357.43 A 0.42,0.41 -4.5 0 0 184.10,356.95 Q 179.77,334.66 170.52,313.95 Q 169.08,310.74 168.95,310.58 Q 167.66,309.07 164.75,309.75 Q 119.44,320.40 73.02,307.67 Q 67.31,306.10 61.01,304.55 Q 59.77,304.25 60.63,305.20 Q 62.73,307.54 64.53,309.23 ZM 88.57,386.93 A 43.51 43.51 0.0 0 0 45.06,343.42 A 43.51 43.51 0.0 0 0 1.55,386.93 A 43.51 43.51 0.0 0 0 45.06,430.44 A 43.51 43.51 0.0 0 0 88.57,386.93 ZM 773.70,387.00 A 43.50 43.50 0.0 0 0 730.20,343.50 A 43.50 43.50 0.0 0 0 686.70,387.00 A 43.50 43.50 0.0 0 0 730.20,430.50 A 43.50 43.50 0.0 0 0 773.70,387.00 ZM 569.61,375.85 Q 534.88,370.53 503.90,356.30 A 0.28,0.28 -73.5 0 0 503.50,356.52 Q 499.18,386.98 503.49,417.44 A 0.37,0.37 -16.9 0 0 504.02,417.72 Q 535.24,403.02 569.51,398.50 A 0.51,0.50 86.7 0 0 569.94,398.01 L 570.24,376.61 A 0.76,0.75 -85.2 0 0 569.61,375.85 ZM 256.66,411.88 Q 263.74,414.69 270.81,417.87 A 0.66,0.66 -72.8 0 0 271.73,417.38 Q 276.81,387.73 271.63,357.12 A 0.56,0.56 72.9 0 0 270.84,356.70 Q 239.51,371.37 206.13,375.48 A 0.73,0.72 -5.5 0 0 205.50,376.24 Q 206.09,386.75 205.47,397.87 A 0.57,0.56 6.2 0 0 205.95,398.46 Q 232.25,402.21 256.66,411.88 ZM 128.44,460.06 Q 148.31,460.60 167.71,465.07 A 0.63,0.63 18.4 0 0 168.42,464.72 Q 178.98,441.74 184.33,417.05 A 0.40,0.40 -83.6 0 0 183.94,416.56 Q 135.61,416.63 94.73,442.01 Q 76.63,453.24 61.24,468.01 Q 58.97,470.19 61.98,469.27 Q 77.88,464.43 94.60,461.72 Q 102.36,460.46 111.47,460.19 Q 121.76,459.88 128.44,460.06 ZM 659.69,459.99 Q 688.27,461.02 715.20,470.57 Q 716.52,471.04 715.54,470.04 Q 708.47,462.86 700.50,456.24 Q 657.78,420.72 601.99,416.88 Q 596.87,416.53 591.94,416.74 A 0.51,0.50 -6.9 0 0 591.47,417.34 Q 596.12,441.81 606.70,464.67 A 0.62,0.62 71.2 0 0 607.41,465.02 Q 633.25,459.04 659.69,459.99 ZM 267.14,436.99 Q 237.06,421.48 204.05,417.37 A 0.55,0.53 -80.8 0 0 203.46,417.81 Q 197.86,444.80 186.88,469.90 A 0.60,0.60 22.7 0 0 187.21,470.70 Q 212.95,480.62 235.46,496.07 A 0.58,0.58 35.4 0 0 236.25,495.94 Q 255.90,469.51 267.44,437.76 A 0.63,0.62 -66.5 0 0 267.14,436.99 ZM 539.66,495.92 Q 561.82,480.16 588.10,471.04 A 0.79,0.79 -21.4 0 0 588.57,469.97 Q 577.30,444.43 572.03,417.81 A 0.54,0.53 81.5 0 0 571.44,417.37 Q 538.95,421. 55 509.48,436.29 A 0.65,0.65 -20.0 0 0 509.14,437.02 Q 512.19,449.95 517.82,461.44 Q 526.73,479.63 538.93,495.81 A 0.53,0.53 -36.3 0 0 539.66,495.92 ZM 258.10,515.65 Q 262.52,519.73 266.31,523.90 A 0.67,0.66 49.8 0 0 267.22,523.98 Q 294.59,502.41 327.04,491.06 A 0.57,0.57 -28.2 0 0 327.31,490.18 Q 308.66,465.41 284.46,447.64 A 0.85,0.85 -62.7 0 0 283.15,448.06 Q 275.68,470.50 262.56,490.79 Q 257.09,499.26 250.98,507.73 A 0.70,0.69 41.6 0 0 251.04,508.63 Q 254.72,512.54 258.10,515.65 ZM 448.04,490.66 Q 480.03,503.07 507.87,523.82 A 0.76,0.76 -49.0 0 0 508.87,523.75 L 524.34,508.29 A 0.58,0.57 49.1 0 0 524.39,507.54 Q 515.30,495.45 507.74,482.38 Q 503.52,475.09 498.98,465.20 Q 494.96,456.43 491.18,447.54 A 0.45,0.45 -30.8 0 0 490.49,447.37 Q 466.56,465.93 447.87,490.03 A 0.41,0.41 -60.1 0 0 448.04,490.66 ZM 20.49,540.33 Q 36.64,548.32 55.70,554.20 Q 57.48,554.75 59.25,554.17 Q 68.74,551.07 78.95,546.88 Q 119.88,530.09 148.01,495.99 Q 153.34,489.53 157.97,483.00 A 0.63,0.63 23.5 0 0 157.58,482.02 Q 121.54,474.21 85.68,482.41 Q 65.73,486.97 44.69,496.94 Q 40.79,498.78 37.95,500.96 Q 35.33,502.99 33.13,506.94 Q 25.10,521.41 19.70,538.48 A 1.55,1.54 -68.3 0 0 20.49,540.33 ZM 640.98,511.02 Q 672.16,541.15 713.78,553.54 Q 713.85,553.56 715.19,554.05 Q 717.40,554.85 720.00,554.00 Q 739.39,547.65 755.55,539.72 A 0.58,0.57 67.8 0 0 755.84,539.02 Q 750.78,523.49 743.26,509.02 Q 741.36,505.36 739.70,503.35 Q 737.20,500.32 734.56,498.94 Q 692.03,476.66 644.23,478.39 Q 637.48,478.63 630.80,479.58 Q 624.29,480.50 617.52,481.90 A 0.48,0.47 67.5 0 0 617.22,482.63 Q 627.89,498.38 640.98,511.02 ZM 222.78,509.67 Q 201.48,495.39 178.50,487.67 A 1.79,1.78 25.5 0 0 176.42,488.40 Q 146.57,534.76 97.89,559.21 Q 95.64,560.34 98.16,560.27 Q 113.03,559.84 127.39,557.69 Q 137.74,556.14 146.96,553.62 Q 190.35,541.73 222.83,510.17 A 0.33,0.32 39.3 0 0 222.78,509.67 ZM 553.44,511.19 Q 600.64,555.50 662.99,559.71 Q 670.11,560.19 677.38,560.25 Q 679.36,560.27 677.59,559.39 Q 642.91,542.25 617.05,512.83 Q 612.52,507.68 607.47,500.73 Q 602.86,494.40 598.59,488.10 A 1.23,1.22 -26.1 0 0 597.18,487.62 Q 572.19,495.83 553.57,509.23 A 1.28,1.27 48.8 0 0 553.44,511.19 ZM 393.68,569.48 Q 395.93,569.60 398.19,569.47 A 0.65,0.64 -86.5 0 0 398.78,568.94 Q 401.74,552.20 403.25,546.00 Q 408.52,524.37 418.34,503.32 A 0.67,0.67 -74.3 0 0 417.81,502.37 Q 387.73,499.07 357.85,502.61 A 0.90,0.90 76.3 0 0 357.11,503.83 Q 358.99,508.60 361.39,514.05 Q 369.11,531.53 372.85,550.28 Q 374.67,559.43 376.58,568.57 A 0.65,0.65 84.8 0 0 377.19,569.08 Q 383.19,569.30 389.19,569.31 Q 390.34,569.32 393.68,569.48 ZM 304.90,587.88 Q 329.73,575.98 356.75,571.92 A 0.91,0.91 -7.8 0 0 357.52,570.91 Q 353.28,537.58 337.98,507.94 A 0.59,0.59 67.3 0 0 337.28,507.65 Q 305.19,517.88 279.33,538.29 A 1.12,1.11 53.9 0 0 279.10,539.79 Q 294.92,562.85 304.01,587.52 A 0.65,0.64 -22.6 0 0 304.90,587.88 ZM 418.35,571.13 Q 445.74,576.91 470.12,587.83 A 0.62,0.61 -67.0 0 0 470.95,587.49 Q 480.99,561.75 496.30,539.16 A 0.69,0.69 -54.5 0 0 496.15,538.23 Q 469.89,517.85 437.79,507.71 A 0.59,0.58 21.7 0 0 437.09,508.01 Q 423.12,536.53 418.41,567.99 Q 418.23,569.19 417.84,570.22 A 0.69,0.69 -74.3 0 0 418.35,571.13 ZM 255.69,561.44 Q 221.42,602.65 215.55,654.98 Q 214.36,665.58 214.00,676.14 Q 213.91,678.88 215.18,676.45 Q 226.52,654.73 242.21,635.96 Q 255.54,620.02 272.37,607.84 Q 279.79,602.48 287.46,597.42 A 0.69,0.68 63.0 0 0 287.72,596.61 Q 278.74,572.63 264.53,551.91 A 0.40,0.39 50.0 0 0 263.91,551.85 Q 261.89,553.98 255.69,561.44 ZM 488.63,597.94 Q 503.02,607.42 515.88,618.88 Q 543.44,643.41 559.69,676.57 Q 560.48,678.18 560.51,676.39 Q 561.42,622.80 532.30,578.55 Q 526.73,570.09 522.69,564.93 Q 517.46,558.24 511.32,552.66 A 0.96,0.95 38.0 0 0 509.89,552.83 Q 495.80,573.81 487.89,597.21 A 0.39,0.34 -62.6 0 0 487.99,597.62 Q 488.09,597.70 488.21,597.75 Q 488.56,597.89 488.63,597.94 ZM 188.79,623.25 Q 187.60,613.34 181.79,605.25 Q 181.35,604.21 180.50,603.46 Q 172.45,592.07 158.81,587.44 Q 155.22,586.22 152.25,586.21 Q 147.14,585.12 139.75,586.25 Q 118.83,589.45 108.92,605.33 Q 103.72,613.67 102.37,624.05 Q 100.20,640.74 109.93,654.16 Q 115.58,661.96 123.63,666.65 Q 132.02,671.54 141.76,672.39 Q 151.64,673.26 161.34,669.44 Q 182.52,661.09 188.44,636.94 Q 189.86,631.13 188.79,623.25 ZM 673.24,628.98 A 43.49 43.49 0.0 0 0 629.75,585.49 A 43.49 43.49 0.0 0 0 586.26,628.98 A 43.49 43.49 0.0 0 0 629.75,672.47 A 43.49 43.49 0.0 0 0 673.24,628.98 ZM 465.41,605.97 Q 442.14,595.09 417.55,590.41 A 0.39,0.38 4.7 0 0 417.08,590.80 Q 417.82,606.26 420.50,621.50 Q 424.94,646.75 436.91,669.39 Q 449.96,694.07 469.58,713.95 Q 471.02,715.42 470.41,713.45 Q 466.14,699.82 463.35,685.65 Q 461.93,678.46 461.34,670.77 Q 460.76,663.27 460.51,655.75 Q 459.68,631.21 465.83,606.86 A 0.77,0.77 -70.3 0 0 465.41,605.97 ZM 314.82,660.43 Q 313.96,681.34 308.08,701.41 Q 306.29,707.52 304.65,713.83 Q 304.25,715.39 305.38,714.24 Q 355.98,663.20 358.24,591.00 A 0.41,0.41 85.4 0 0 357.76,590.59 Q 332.86,595.05 310.26,606.34 A 0.65,0.64 70.9 0 0 309.92,607.06 Q 315.94,633.40 314.82,660.43 ZM 504.37,739.13 Q 506.22,740.68 509.19,742.31 Q 523.32,750.07 539.34,754.93 A 0.61,0.61 23.0 0 0 540.06,754.64 Q 548.28,739.66 553.27,723.23 Q 554.10,720.47 554.28,718.19 Q 554.55,714.79 554.00,713.00 Q 535.34,652.12 483.29,616.56 A 0.48,0.48 -67.2 0 0 482.54,616.87 Q 479.31,634.45 478.99,651.75 Q 478.89,657.26 480.50,671.25 Q 484.50,705.96 500.65,734.64 Q 502.11,737.23 504.37,739.13 ZM 255.69,649.19 Q 234.97,674.20 224.75,702.25 Q 222.39,708.74 221.54,714.41 Q 221.20,716.67 221.44,719.11 Q 221.75,722.19 222.25,723.75 Q 227.17,739.17 234.63,754.33 A 1.04,1.03 67.7 0 0 235.88,754.86 Q 252.18,749.64 266.43,741.79 Q 270.17,739.72 272.39,737.33 Q 274.98,734.53 276.85,731.23 Q 277.97,729.26 281.44,721.09 Q 302.67,671.12 292.82,616.96 A 0.46,0.46 -22.0 0 0 292.11,616.66 Q 271.27,630.37 255.69,649.19 ZM 431.12,729.32 A 43.44 43.44 0.0 0 0 387.68,685.88 A 43.44 43.44 0.0 0 0 344.24,729.32 A 43.44 43.44 0.0 0 0 387.68,772.76 A 43.44 43.44 0.0 0 0 431.12,729.32 Z"
     id="path526" />
  <circle
     fill="#5d7107"
     cx="387.64"
     cy="44.58"
     r="43.53"
     id="circle528" />
  <path
     fill="#74870e"
     d="M 255.63,26.52 Q 263.21,29.57 268.75,33.25 Q 273.35,36.30 276.21,41.80 Q 292.80,73.62 295.39,109.51 Q 297.10,133.38 292.89,157.19 A 0.79,0.79 22.4 0 1 291.66,157.70 Q 247.03,126.83 227.11,77.61 Q 223.14,67.80 222.44,64.97 Q 221.33,60.47 221.52,55.80 Q 221.67,52.08 223.40,46.90 Q 228.03,33.07 234.84,19.38 A 0.66,0.66 22.8 0 1 235.65,19.05 Q 245.66,22.51 255.63,26.52 Z"
     id="path530" />
  <path
     fill="#74870e"
     d="M 501.23,38.47 Q 505.21,33.47 510.96,30.60 Q 524.74,23.74 539.45,19.21 A 0.63,0.61 -22.7 0 1 540.18,19.50 Q 547.89,33.44 553.31,50.19 Q 554.40,53.55 554.44,56.70 Q 554.47,59.12 553.27,63.06 Q 544.08,93.32 525.09,118.28 Q 519.22,125.98 511.95,133.32 Q 498.89,146.50 483.41,157.56 A 0.50,0.49 -23.1 0 1 482.63,157.25 Q 471.29,97.43 498.31,43.06 Q 499.53,40.61 501.23,38.47 Z"
     id="path532" />
  <path
     fill="#74870e"
     d="M 314.95,128.19 Q 316.23,92.30 303.77,58.79 Q 303.30,57.53 304.24,58.49 Q 315.84,70.25 325.50,83.58 Q 331.57,91.95 336.27,100.43 Q 357.56,138.88 358.19,183.49 A 0.47,0.47 5.6 0 1 357.63,183.95 Q 333.03,179.06 310.21,168.11 A 0.66,0.65 -71.3 0 1 309.86,167.38 Q 314.25,147.70 314.95,128.19 Z"
     id="path534" />
  <path
     fill="#74870e"
     d="M 467.34,62.29 Q 468.63,60.83 470.03,59.68 Q 470.74,59.10 470.51,59.98 Q 467.82,69.99 465.28,80.01 Q 461.18,96.18 460.56,112.76 Q 460.21,122.20 460.72,132.75 Q 461.55,150.00 465.58,167.10 A 1.17,1.16 -19.0 0 1 464.92,168.44 Q 441.64,179.01 417.52,183.70 A 0.47,0.47 86.2 0 1 416.96,183.21 Q 417.76,168.09 420.17,153.58 Q 421.89,143.18 424.69,134.12 Q 436.72,95.05 464.94,65.01 Q 465.02,64.92 467.34,62.29 Z"
     id="path536" />
  <path
     fill="#74870e"
     d="M 251.81,148.44 Q 267.53,163.96 287.34,176.98 A 0.62,0.62 26.8 0 1 287.58,177.71 Q 278.80,201.13 264.93,221.95 A 0.65,0.65 -50.1 0 1 263.92,222.04 Q 237.40,194.70 224.81,159.01 Q 221.67,150.10 219.37,139.79 Q 214.61,118.38 213.82,96.48 Q 213.77,95.15 214.43,96.30 Q 217.85,102.25 221.22,108.22 Q 225.37,115.59 228.30,119.94 Q 238.95,135.73 251.81,148.44 Z"
     id="path538" />
  <path
     fill="#74870e"
     d="M 559.70,97.67 Q 560.68,95.69 560.69,97.90 Q 560.81,169.25 511.39,221.78 A 0.80,0.80 49.5 0 1 510.15,221.68 Q 496.03,200.90 487.92,177.73 A 0.66,0.64 63.3 0 1 488.16,176.97 Q 504.71,165.63 515.44,155.94 Q 543.05,130.99 559.70,97.67 Z"
     id="path540" />
  <circle
     fill="#5d7107"
     cx="145.44"
     cy="144.95"
     r="43.59"
     id="circle542" />
  <path
     fill="#5d7107"
     d="M 636.75,187.79 Q 632.57,187.74 628.40,187.74 Q 623.76,187.74 620.20,186.84 Q 615.51,185.67 612.31,184.19 Q 610.99,183.58 610.25,183.96 Q 599.82,178.79 593.50,169.04 Q 593.98,168.60 593.56,167.94 Q 589.53,161.50 588.31,153.49 Q 587.53,148.39 587.04,143.25 Q 587.01,125.36 599.06,113.81 Q 613.73,99.76 633.12,101.50 Q 643.34,102.42 652.04,107.42 Q 668.76,117.03 672.75,137.50 Q 673.87,143.22 673.20,149.37 Q 672.58,155.03 670.32,160.77 Q 661.58,182.95 636.75,187.79 Z"
     id="path544" />
  <path
     fill="#7d8c3f"
     d="M 587.04,143.25 Q 587.53,148.39 588.31,153.49 Q 589.53,161.50 593.56,167.94 Q 593.98,168.60 593.50,169.04 Q 585.55,157.46 587.04,143.25 Z"
     id="path546" />
  <path
     fill="#7d8c3f"
     d="M 636.75,187.79 Q 622.74,190.87 610.25,183.96 Q 610.99,183.58 612.31,184.19 Q 615.51,185.67 620.20,186.84 Q 623.76,187.74 628.40,187.74 Q 632.57,187.74 636.75,187.79 Z"
     id="path548" />
  <path
     fill="#74870e"
     d="M 496.14,235.40 Q 495.61,236.44 494.78,237.06 Q 468.77,256.58 437.79,266.54 A 0.59,0.58 -21.7 0 1 437.09,266.24 Q 422.75,236.75 417.90,203.57 A 0.73,0.73 -9.5 0 1 418.49,202.75 Q 445.50,197.78 470.22,186.63 A 0.85,0.85 -22.6 0 1 471.36,187.10 Q 480.79,212.33 496.09,234.53 A 0.84,0.84 41.7 0 1 496.14,235.40 Z"
     id="path550" />
  <path
     fill="#74870e"
     d="M 311.17,256.09 Q 294.16,247.69 279.30,236.37 A 0.69,0.69 34.7 0 1 279.12,235.47 Q 283.89,227.41 288.34,219.88 Q 297.49,204.41 303.84,187.50 A 1.11,1.10 -68.6 0 1 305.30,186.86 Q 330.51,197.35 357.26,203.18 A 0.42,0.41 10.2 0 1 357.59,203.65 Q 352.39,236.71 338.05,266.46 A 0.61,0.60 22.0 0 1 337.31,266.77 Q 323.56,262.21 311.17,256.09 Z"
     id="path552" />
  <path
     fill="#74870e"
     d="M 357.60,270.84 A 0.65,0.65 17.7 0 1 357.14,269.92 Q 369.14,245.28 373.77,218.66 Q 374.91,212.12 376.56,206.39 A 1.91,1.84 -81.7 0 1 378.33,205.02 L 398.44,204.75 A 0.57,0.55 85.3 0 1 399.00,205.24 Q 403.88,239.36 418.34,270.35 A 0.69,0.69 72.8 0 1 417.83,271.32 Q 387.02,276.56 357.60,270.84 Z"
     id="path554" />
  <path
     fill="#74870e"
     d="M 142.61,245.74 Q 122.20,227.53 97.92,214.58 Q 97.45,214.33 97.41,214.02 A 0.60,0.40 0.0 0 1 98.06,213.59 Q 103.31,213.83 115.75,214.75 Q 132.02,215.95 145.77,219.69 Q 189.68,231.61 222.74,263.85 A 0.42,0.41 50.6 0 1 222.68,264.49 Q 201.54,278.42 177.78,286.77 A 0.63,0.62 -26.5 0 1 177.04,286.53 Q 167.72,272.54 156.67,259.94 Q 149.97,252.30 142.61,245.74 Z"
     id="path556" />
  <path
     fill="#74870e"
     d="M 552.39,264.26 A 0.61,0.61 40.9 0 1 552.32,263.32 Q 570.97,245.64 594.11,233.66 Q 631.96,214.07 675.87,214.00 Q 677.87,214.00 676.31,215.26 Q 674.91,216.39 672.24,217.79 Q 648.05,230.54 628.38,249.25 Q 621.54,255.75 614.87,263.95 Q 605.94,274.92 598.10,286.83 A 0.59,0.58 -63.7 0 1 597.43,287.06 Q 573.71,279.10 552.39,264.26 Z"
     id="path558" />
  <path
     fill="#74870e"
     d="M 125.56,255.19 Q 144.36,271.39 158.37,292.02 A 0.49,0.49 69.2 0 1 158.03,292.78 Q 146.46,294.17 134.73,294.95 Q 123.17,295.72 114.76,295.37 Q 77.26,293.83 43.19,276.31 Q 39.70,274.52 37.07,272.12 Q 34.89,270.12 32.76,266.23 Q 24.96,252.00 19.61,235.55 A 1.05,1.05 67.2 0 1 20.12,234.30 Q 31.73,228.28 42.94,223.94 Q 49.78,221.29 57.00,220.00 Q 58.58,219.72 63.72,221.34 Q 99.36,232.60 125.56,255.19 Z"
     id="path560" />
  <path
     fill="#74870e"
     d="M 617.33,292.29 A 0.25,0.25 21.5 0 1 617.16,291.91 Q 635.81,263.50 664.19,244.50 Q 682.60,232.18 706.44,222.94 Q 711.70,220.90 716.40,220.39 Q 719.90,220.02 724.44,221.42 Q 740.35,226.34 755.64,234.23 A 0.61,0.61 -67.0 0 1 755.93,234.96 Q 752.35,245.61 747.85,255.66 Q 743.32,265.81 740.96,268.90 Q 737.77,273.08 733.17,275.82 Q 731.46,276.83 723.91,280.25 Q 699.75,291.19 673.24,294.16 Q 645.20,297.31 617.33,292.29 Z"
     id="path562" />
  <path
     fill="#74870e"
     d="M 468.65,308.10 Q 457.20,296.87 447.77,283.27 A 0.40,0.39 -25.8 0 1 447.98,282.67 Q 466.52,276.92 483.25,267.00 Q 493.69,260.81 508.28,250.60 A 0.61,0.60 -40.9 0 1 509.05,250.65 L 524.57,265.43 A 0.87,0.87 -49.6 0 1 524.66,266.60 Q 503.45,294.29 491.44,326.42 A 0.39,0.39 27.1 0 1 490.85,326.61 Q 478.82,318.07 468.65,308.10 Z"
     id="path564" />
  <path
     fill="#74870e"
     d="M 327.39,282.88 A 0.38,0.38 -62.2 0 1 327.57,283.47 Q 309.00,308.51 284.19,326.79 A 0.61,0.61 -27.2 0 1 283.25,326.49 Q 277.28,308.64 267.92,292.41 Q 265.21,287.70 259.60,279.41 Q 255.27,273.01 250.98,266.62 A 0.62,0.60 51.1 0 1 251.05,265.84 L 266.07,251.05 A 1.13,1.11 38.2 0 1 267.42,250.90 Q 271.26,253.19 274.32,255.43 Q 298.44,273.11 327.39,282.88 Z"
     id="path566" />
  <path
     fill="#74870e"
     d="M 256.31,342.31 Q 231.19,353.24 203.75,356.78 A 0.59,0.58 -8.9 0 1 203.10,356.31 Q 198.19,329.43 187.08,304.83 A 0.82,0.81 -22.6 0 1 187.54,303.73 Q 206.92,296.32 224.69,285.19 Q 231.01,281.23 235.56,278.97 A 0.63,0.62 56.9 0 1 236.32,279.14 Q 249.87,295.64 259.06,316.69 Q 264.72,329.62 267.33,336.78 A 0.57,0.57 -23.5 0 1 267.05,337.48 Q 264.52,338.75 256.31,342.31 Z"
     id="path568" />
  <path
     fill="#74870e"
     d="M 509.18,337.93 A 0.69,0.68 -69.2 0 1 508.82,337.12 Q 518.11,304.94 538.50,279.21 A 0.64,0.64 -58.8 0 1 539.27,279.02 Q 544.23,281.23 551.81,285.94 Q 567.90,295.92 588.22,303.64 A 0.46,0.45 22.4 0 1 588.48,304.26 Q 576.92,329.43 572.02,356.70 A 0.52,0.51 8.6 0 1 571.44,357.12 Q 538.84,352.70 509.18,337.93 Z"
     id="path570" />
  <path
     fill="#95ac17"
     d="M 463.22,328.16 Q 473.87,337.48 485.35,345.54 A 2.37,2.37 -66.5 0 1 486.31,347.98 Q 477.72,387.97 486.89,427.51 A 0.76,0.75 65.9 0 1 486.60,428.29 Q 478.58,434.06 470.70,439.99 Q 454.12,452.47 441.34,468.80 Q 434.68,477.31 428.05,485.86 A 0.78,0.78 -65.3 0 1 427.27,486.15 Q 394.75,479.34 361.78,483.70 Q 355.54,484.52 348.07,484.79 A 3.11,3.10 66.5 0 1 345.75,483.87 Q 343.01,481.08 340.47,477.52 Q 325.49,456.52 305.27,440.49 Q 297.43,434.28 289.40,428.30 A 0.82,0.81 -66.7 0 1 289.09,427.50 Q 295.54,392.71 291.13,357.62 Q 290.74,354.56 290.61,351.85 Q 290.48,349.20 290.34,346.56 A 1.02,0.99 68.4 0 1 290.68,345.74 Q 296.33,340.82 302.23,336.21 Q 311.39,329.06 313.90,326.84 Q 324.96,317.11 332.56,307.31 Q 339.44,298.44 346.14,289.79 Q 347.26,288.34 349.04,288.71 Q 388.38,296.76 428.02,288.31 A 0.78,0.77 67.0 0 1 428.81,288.63 Q 438.03,302.18 448.93,314.18 Q 455.48,321.39 463.22,328.16 Z"
     id="path572" />
  <path
     fill="#74870e"
     d="M 652.82,314.47 Q 684.43,313.84 714.78,304.16 Q 716.34,303.66 715.19,304.81 Q 665.07,355.07 592.10,357.53 A 0.89,0.88 -84.7 0 1 591.21,356.45 Q 596.52,332.17 606.81,309.63 A 0.65,0.65 -71.4 0 1 607.55,309.26 Q 620.09,312.10 632.86,313.54 Q 642.89,314.66 652.82,314.47 Z"
     id="path574" />
  <path
     fill="#74870e"
     d="M 64.53,309.23 Q 62.73,307.54 60.63,305.20 Q 59.77,304.25 61.01,304.55 Q 67.31,306.10 73.02,307.67 Q 119.44,320.40 164.75,309.75 Q 167.66,309.07 168.95,310.58 Q 169.08,310.74 170.52,313.95 Q 179.77,334.66 184.10,356.95 A 0.42,0.41 -4.5 0 1 183.68,357.43 Q 114.49,356.24 64.53,309.23 Z"
     id="path576" />
  <circle
     fill="#5d7107"
     cx="45.06"
     cy="386.93"
     r="43.51"
     id="circle578" />
  <circle
     fill="#5d7107"
     cx="730.20"
     cy="387.00"
     r="43.50"
     id="circle580" />
  <path
     fill="#74870e"
     d="M 569.61,375.85 A 0.76,0.75 -85.2 0 1 570.24,376.61 L 569.94,398.01 A 0.51,0.50 86.7 0 1 569.51,398.50 Q 535.24,403.02 504.02,417.72 A 0.37,0.37 -16.9 0 1 503.49,417.44 Q 499.18,386.98 503.50,356.52 A 0.28,0.28 -73.5 0 1 503.90,356.30 Q 534.88,370.53 569.61,375.85 Z"
     id="path582" />
  <path
     fill="#74870e"
     d="M 256.66,411.88 Q 232.25,402.21 205.95,398.46 A 0.57,0.56 6.2 0 1 205.47,397.87 Q 206.09,386.75 205.50,376.24 A 0.73,0.72 -5.5 0 1 206.13,375.48 Q 239.51,371.37 270.84,356.70 A 0.56,0.56 72.9 0 1 271.63,357.12 Q 276.81,387.73 271.73,417.38 A 0.66,0.66 -72.8 0 1 270.81,417.87 Q 263.74,414.69 256.66,411.88 Z"
     id="path584" />
  <path
     fill="#74870e"
     d="M 128.44,460.06 Q 121.76,459.88 111.47,460.19 Q 102.36,460.46 94.60,461.72 Q 77.88,464.43 61.98,469.27 Q 58.97,470.19 61.24,468.01 Q 76.63,453.24 94.73,442.01 Q 135.61,416.63 183.94,416.56 A 0.40,0.40 -83.6 0 1 184.33,417.05 Q 178.98,441.74 168.42,464.72 A 0.63,0.63 18.4 0 1 167.71,465.07 Q 148.31,460.60 128.44,460.06 Z"
     id="path586" />
  <path
     fill="#74870e"
     d="M 659.69,459.99 Q 633.25,459.04 607.41,465.02 A 0.62,0.62 71.2 0 1 606.70,464.67 Q 596.12,441.81 591.47,417.34 A 0.51,0.50 -6.9 0 1 591.94,416.74 Q 596.87,416.53 601.99,416.88 Q 657.78,420.72 700.50,456.24 Q 708.47,462.86 715.54,470.04 Q 716.52,471.04 715.20,470.57 Q 688.27,461.02 659.69,459.99 Z"
     id="path588" />
  <path
     fill="#74870e"
     d="M 267.14,436.99 A 0.63,0.62 -66.5 0 1 267.44,437.76 Q 255.90,469.51 236.25,495.94 A 0.58,0.58 35.4 0 1 235.46,496.07 Q 212.95,480.62 187.21,470.70 A 0.60,0.60 22.7 0 1 186.88,469.90 Q 197.86,444.80 203.46,417.81 A 0.55,0.53 -80.8 0 1 204.05,417.37 Q 237.06,421.48 267.14,436.99 Z"
     id="path590" />
  <path
     fill="#74870e"
     d="M 539.66,495.92 A 0.53,0.53 -36.3 0 1 538.93,495.81 Q 526.73,479.63 517.82,461.44 Q 512.19,449.95 509.14,437.02 A 0.65,0.65 -20.0 0 1 509.48,436.29 Q 538.95,421.55 571.44,417.37 A 0.54,0.53 81.5 0 1 572.03,417.81 Q 577.30,444.43 588.57,469.97 A 0.79,0.79 -21.4 0 1 588.10,471.04 Q 561.82,480.16 539.66,495.92 Z"
     id="path592" />
  <path
     fill="#74870e"
     d="M 258.10,515.65 Q 254.72,512.54 251.04,508.63 A 0.70,0.69 41.6 0 1 250.98,507.73 Q 257.09,499.26 262.56,490.79 Q 275.68,470.50 283.15,448.06 A 0.85,0.85 -62.7 0 1 284.46,447.64 Q 308.66,465.41 327.31,490.18 A 0.57,0.57 -28.2 0 1 327.04,491.06 Q 294.59,502.41 267.22,523.98 A 0.67,0.66 49.8 0 1 266.31,523.90 Q 262.52,519.73 258.10,515.65 Z"
     id="path594" />
  <path
     fill="#74870e"
     d="M 448.04,490.66 A 0.41,0.41 -60.1 0 1 447.87,490.03 Q 466.56,465.93 490.49,447.37 A 0.45,0.45 -30.8 0 1 491.18,447.54 Q 494.96,456.43 498.98,465.20 Q 503.52,475.09 507.74,482.38 Q 515.30,495.45 524.39,507.54 A 0.58,0.57 49.1 0 1 524.34,508.29 L 508.87,523.75 A 0.76,0.76 -49.0 0 1 507.87,523.82 Q 480.03,503.07 448.04,490.66 Z"
     id="path596" />
  <path
     fill="#74870e"
     d="M 20.49,540.33 A 1.55,1.54 -68.3 0 1 19.70,538.48 Q 25.10,521.41 33.13,506.94 Q 35.33,502.99 37.95,500.96 Q 40.79,498.78 44.69,496.94 Q 65.73,486.97 85.68,482.41 Q 121.54,474.21 157.58,482.02 A 0.63,0.63 23.5 0 1 157.97,483.00 Q 153.34,489.53 148.01,495.99 Q 119.88,530.09 78.95,546.88 Q 68.74,551.07 59.25,554.17 Q 57.48,554.75 55.70,554.20 Q 36.64,548.32 20.49,540.33 Z"
     id="path598" />
  <path
     fill="#74870e"
     d="M 640.98,511.02 Q 627.89,498.38 617.22,482.63 A 0.48,0.47 67.5 0 1 617.52,481.90 Q 624.29,480.50 630.80,479.58 Q 637.48,478.63 644.23,478.39 Q 692.03,476.66 734.56,498.94 Q 737.20,500.32 739.70,503.35 Q 741.36,505.36 743.26,509.02 Q 750.78,523.49 755.84,539.02 A 0.58,0.57 67.8 0 1 755.55,539.72 Q 739.39,547.65 720.00,554.00 Q 717.40,554.85 715.19,554.05 Q 713.85,553.56 713.78,553.54 Q 672.16,541.15 640.98,511.02 Z"
     id="path600" />
  <path
     fill="#74870e"
     d="M 222.78,509.67 A 0.33,0.32 39.3 0 1 222.83,510.17 Q 190.35,541.73 146.96,553.62 Q 137.74,556.14 127.39,557.69 Q 113.03,559.84 98.16,560.27 Q 95.64,560.34 97.89,559.21 Q 146.57,534.76 176.42,488.40 A 1.79,1.78 25.5 0 1 178.50,487.67 Q 201.48,495.39 222.78,509.67 Z"
     id="path602" />
  <path
     fill="#74870e"
     d="M 553.44,511.19 A 1.28,1.27 48.8 0 1 553.57,509.23 Q 572.19,495.83 597.18,487.62 A 1.23,1.22 -26.1 0 1 598.59,488.10 Q 602.86,494.40 607.47,500.73 Q 612.52,507.68 617.05,512.83 Q 642.91,542.25 677.59,559.39 Q 679.36,560.27 677.38,560.25 Q 670.11,560.19 662.99,559.71 Q 600.64,555.50 553.44,511.19 Z"
     id="path604" />
  <path
     fill="#74870e"
     d="M 389.19,569.31 Q 383.19,569.30 377.19,569.08 A 0.65,0.65 84.8 0 1 376.58,568.57 Q 374.67,559.43 372.85,550.28 Q 369.11,531.53 361.39,514.05 Q 358.99,508.60 357.11,503.83 A 0.90,0.90 76.3 0 1 357.85,502.61 Q 387.73,499.07 417.81,502.37 A 0.67,0.67 -74.3 0 1 418.34,503.32 Q 408.52,524.37 403.25,546.00 Q 401.74,552.20 398.78,568.94 A 0.65,0.64 -86.5 0 1 398.19,569.47 Q 395.93,569.60 393.68,569.48 Q 390.34,569.32 389.19,569.31 Z"
     id="path606" />
  <path
     fill="#74870e"
     d="M 304.90,587.88 A 0.65,0.64 -22.6 0 1 304.01,587.52 Q 294.92,562.85 279.10,539.79 A 1.12,1.11 53.9 0 1 279.33,538.29 Q 305.19,517.88 337.28,507.65 A 0.59,0.59 67.3 0 1 337.98,507.94 Q 353.28,537.58 357.52,570.91 A 0.91,0.91 -7.8 0 1 356.75,571.92 Q 329.73,575.98 304.90,587.88 Z"
     id="path608" />
  <path
     fill="#74870e"
     d="M 418.35,571.13 A 0.69,0.69 -74.3 0 1 417.84,570.22 Q 418.23,569.19 418.41,567.99 Q 423.12,536.53 437.09,508.01 A 0.59,0.58 21.7 0 1 437.79,507.71 Q 469.89,517.85 496.15,538.23 A 0.69,0.69 -54.5 0 1 496.30,539.16 Q 480.99,561.75 470.95,587.49 A 0.62,0.61 -67.0 0 1 470.12,587.83 Q 445.74,576.91 418.35,571.13 Z"
     id="path610" />
  <path
     fill="#74870e"
     d="M 255.69,561.44 Q 261.89,553.98 263.91,551.85 A 0.40,0.39 50.0 0 1 264.53,551.91 Q 278.74,572.63 287.72,596.61 A 0.69,0.68 63.0 0 1 287.46,597.42 Q 279.79,602.48 272.37,607.84 Q 255.54,620.02 242.21,635.96 Q 226.52,654.73 215.18,676.45 Q 213.91,678.88 214.00,676.14 Q 214.36,665.58 215.55,654.98 Q 221.42,602.65 255.69,561.44 Z"
     id="path612" />
  <path
     fill="#74870e"
     d="M 488.21,597.75 Q 488.09,597.70 487.99,597.62 A 0.39,0.34 -62.6 0 1 487.89,597.21 Q 495.80,573.81 509.89,552.83 A 0.96,0.95 38.0 0 1 511.32,552.66 Q 517.46,558.24 522.69,564.93 Q 526.73,570.09 532.30,578.55 Q 561.42,622.80 560.51,676.39 Q 560.48,678.18 559.69,676.57 Q 543.44,643.41 515.88,618.88 Q 503.02,607.42 488.63,597.94 Q 488.56,597.89 488.21,597.75 Z"
     id="path614" />
  <path
     fill="#5d7107"
     d="M 152.25,586.21 Q 151.49,586.25 152.03,586.35 Q 168.48,589.40 179.00,602.25 Q 179.91,603.36 180.50,603.46 Q 181.35,604.21 181.79,605.25 Q 181.26,605.75 181.63,606.35 Q 188.13,616.71 188.67,628.94 Q 188.69,629.46 188.70,628.93 L 188.79,623.25 Q 189.86,631.13 188.44,636.94 Q 182.52,661.09 161.34,669.44 Q 151.64,673.26 141.76,672.39 Q 132.02,671.54 123.63,666.65 Q 115.58,661.96 109.93,654.16 Q 100.20,640.74 102.37,624.05 Q 103.72,613.67 108.92,605.33 Q 118.83,589.45 139.75,586.25 Q 147.14,585.12 152.25,586.21 Z"
     id="path616" />
  <circle
     fill="#5d7107"
     cx="629.75"
     cy="628.98"
     r="43.49"
     id="circle618" />
  <path
     fill="#7d8c3f"
     d="M 180.50,603.46 Q 179.91,603.36 179.00,602.25 Q 168.48,589.40 152.03,586.35 Q 151.49,586.25 152.25,586.21 Q 155.22,586.22 158.81,587.44 Q 172.45,592.07 180.50,603.46 Z"
     id="path620" />
  <path
     fill="#74870e"
     d="M 465.41,605.97 A 0.77,0.77 -70.3 0 1 465.83,606.86 Q 459.68,631.21 460.51,655.75 Q 460.76,663.27 461.34,670.77 Q 461.93,678.46 463.35,685.65 Q 466.14,699.82 470.41,713.45 Q 471.02,715.42 469.58,713.95 Q 449.96,694.07 436.91,669.39 Q 424.94,646.75 420.50,621.50 Q 417.82,606.26 417.08,590.80 A 0.39,0.38 4.7 0 1 417.55,590.41 Q 442.14,595.09 465.41,605.97 Z"
     id="path622" />
  <path
     fill="#74870e"
     d="M 314.82,660.43 Q 315.94,633.40 309.92,607.06 A 0.65,0.64 70.9 0 1 310.26,606.34 Q 332.86,595.05 357.76,590.59 A 0.41,0.41 85.4 0 1 358.24,591.00 Q 355.98,663.20 305.38,714.24 Q 304.25,715.39 304.65,713.83 Q 306.29,707.52 308.08,701.41 Q 313.96,681.34 314.82,660.43 Z"
     id="path624" />
  <path
     fill="#7d8c3f"
     d="M 181.79,605.25 Q 187.60,613.34 188.79,623.25 L 188.70,628.93 Q 188.69,629.46 188.67,628.94 Q 188.13,616.71 181.63,606.35 Q 181.26,605.75 181.79,605.25 Z"
     id="path626" />
  <path
     fill="#74870e"
     d="M 504.37,739.13 Q 502.11,737.23 500.65,734.64 Q 484.50,705.96 480.50,671.25 Q 478.89,657.26 478.99,651.75 Q 479.31,634.45 482.54,616.87 A 0.48,0.48 -67.2 0 1 483.29,616.56 Q 535.34,652.12 554.00,713.00 Q 554.55,714.79 554.28,718.19 Q 554.10,720.47 553.27,723.23 Q 548.28,739.66 540.06,754.64 A 0.61,0.61 23.0 0 1 539.34,754.93 Q 523.32,750.07 509.19,742.31 Q 506.22,740.68 504.37,739.13 Z"
     id="path628" />
  <path
     fill="#74870e"
     d="M 255.69,649.19 Q 271.27,630.37 292.11,616.66 A 0.46,0.46 -22.0 0 1 292.82,616.96 Q 302.67,671.12 281.44,721.09 Q 277.97,729.26 276.85,731.23 Q 274.98,734.53 272.39,737.33 Q 270.17,739.72 266.43,741.79 Q 252.18,749.64 235.88,754.86 A 1.04,1.03 67.7 0 1 234.63,754.33 Q 227.17,739.17 222.25,723.75 Q 221.75,722.19 221.44,719.11 Q 221.20,716.67 221.54,714.41 Q 222.39,708.74 224.75,702.25 Q 234.97,674.20 255.69,649.19 Z"
     id="path630" />
  <circle
     fill="#5d7107"
     cx="387.68"
     cy="729.32"
     r="43.44"
     id="circle632" />
  <text
     xml:space="preserve"
     style="font-style:normal;font-variant:normal;font-weight:normal;font-stretch:normal;font-size:400px;font-family:Suruma;-inkscape-font-specification:Suruma;fill:#000000;stroke-width:1.80163"
     x="99.601562"
     y="528.60156"
     id="text694"><tspan
       x="99.601562"
       y="528.60156"
       style="font-style:normal;font-variant:normal;font-weight:bold;font-stretch:normal;font-size:400px;font-family:Loma;-inkscape-font-specification:'Loma Bold';fill:#ffffff;stroke-width:1.80163"
       id="tspan902">HR</tspan></text>
</svg>
